<svg width="14" height="18" viewBox="0 0 14 18" fill="none" xmlns="http://www.w3.org/2000/svg">
<path fill-rule="evenodd" clip-rule="evenodd" d="M14 6.89737C14 8.52851 13.4254 10.0274 12.4647 11.2082H12.4688C12.4688 11.2082 10.0359 14.416 8.15129 16.6875C7.55002 17.4121 6.4502 17.4118 5.84929 16.6869C3.97065 14.4205 1.54097 11.2152 1.54097 11.2152L1.5353 11.2082C0.574629 10.0274 0 8.52851 0 6.89737C0 3.08806 3.13401 0 7 0C10.866 0 14 3.08806 14 6.89737ZM9.61375 6.86751C9.61375 8.28982 8.44358 9.44283 7.00011 9.44283C5.55664 9.44283 4.38648 8.28982 4.38648 6.86751C4.38648 5.44521 5.55664 4.2922 7.00011 4.2922C8.44358 4.2922 9.61375 5.44521 9.61375 6.86751Z" fill="#FF8F00"/>
</svg>
