<svg width="35" height="37" viewBox="0 0 35 37" fill="none" xmlns="http://www.w3.org/2000/svg">
<path fill-rule="evenodd" clip-rule="evenodd" d="M35 18.5C35 28.7173 27.165 37 17.5 37C7.83502 37 0 28.7173 0 18.5C0 8.28273 7.83502 0 17.5 0C27.165 0 35 8.28273 35 18.5ZM18.1271 13.6575C16.425 14.4059 13.0231 15.955 7.92151 18.3047C7.09309 18.653 6.65913 18.9937 6.61962 19.3268C6.55285 19.8898 7.21979 20.1115 8.12798 20.4134C8.25151 20.4545 8.37952 20.497 8.51074 20.5421C9.40426 20.8491 10.6062 21.2084 11.231 21.2226C11.7978 21.2356 12.4304 20.9886 13.1289 20.4816C17.8954 17.0801 20.356 15.3609 20.5105 15.3238C20.6194 15.2977 20.7705 15.2648 20.8728 15.3609C20.9751 15.4571 20.965 15.6392 20.9542 15.688C20.8881 15.9858 18.2702 18.5587 16.9154 19.8902C16.493 20.3053 16.1934 20.5998 16.1322 20.667C15.995 20.8177 15.8552 20.9601 15.7208 21.0971C14.8907 21.943 14.2682 22.5774 15.7553 23.6134C16.4699 24.1112 17.0417 24.5229 17.6122 24.9336C18.2353 25.3821 18.8567 25.8295 19.6607 26.3867C19.8655 26.5286 20.0612 26.676 20.2517 26.8196C20.9768 27.3661 21.6282 27.857 22.4329 27.7787C22.9006 27.7332 23.3836 27.2684 23.6289 25.882C24.2086 22.6057 25.3482 15.5068 25.6116 12.5815C25.6346 12.3252 25.6056 11.9972 25.5823 11.8532C25.559 11.7092 25.5103 11.5041 25.3332 11.3522C25.1236 11.1724 24.7999 11.1344 24.6551 11.1371C23.9969 11.1494 22.9871 11.5206 18.1271 13.6575Z" fill="black"/>
</svg>
