<svg width="38" height="37" viewBox="0 0 38 37" fill="none" xmlns="http://www.w3.org/2000/svg">
<path fill-rule="evenodd" clip-rule="evenodd" d="M2.67119 2.60089C0 5.20178 0 9.38783 0 17.76V19.24C0 27.6122 0 31.7982 2.67119 34.3991C5.34237 37 9.64155 37 18.24 37H19.76C28.3584 37 32.6576 37 35.3288 34.3991C38 31.7982 38 27.6122 38 19.24V17.76C38 9.38783 38 5.20178 35.3288 2.60089C32.6576 0 28.3584 0 19.76 0H18.24C9.64155 0 5.34237 0 2.67119 2.60089ZM6.41259 11.2542C6.61843 20.8742 11.5584 26.6555 20.2192 26.6555H20.7102V21.1517C23.8927 21.4601 26.2992 23.7263 27.265 26.6555H31.7617C30.5267 22.2772 27.2808 19.8567 25.2541 18.9317C27.2808 17.7909 30.1308 15.0159 30.8116 11.2542H26.7265C25.8398 14.3067 23.2118 17.0817 20.7102 17.3438V11.2542H16.625V21.9226C14.0917 21.3059 10.8934 18.3151 10.7509 11.2542H6.41259Z" fill="white"/>
</svg>
